HIERARCHY
ROOT Hips
{
	OFFSET 0.000000 0.000000 0.000000
	CHANNELS 6 Xposition Yposition Zposition Zrotation Yrotation Xrotation 
	JOINT LowerBack
	{
		OFFSET 0.000000 0.000000 0.000000
		CHANNELS 3 Zrotation Yrotation Xrotation
		JOINT Spine
		{
			OFFSET 0.028270 2.035590 -0.193380
			CHANNELS 3 Zrotation Yrotation Xrotation
			JOINT Spine1
			{
				OFFSET 0.056720 2.048850 -0.042750
				CHANNELS 3 Zrotation Yrotation Xrotation
				JOINT Neck
				{
					OFFSET 0.000000 0.000000 0.000000
					CHANNELS 3 Zrotation Yrotation Xrotation
					JOINT Neck1
					{
						OFFSET -0.054170 1.746240 0.172020
						CHANNELS 3 Zrotation Yrotation Xrotation
						JOINT Head
						{
							OFFSET 0.104070 1.761360 -0.123970
							CHANNELS 3 Zrotation Yrotation Xrotation
							End Site
							{
								OFFSET 0.000000 0.000000 0.000000
							}
						}
					}
				}
				JOINT LeftShoulder
				{
					OFFSET 0.000000 0.000000 0.000000
					CHANNELS 3 Zrotation Yrotation Xrotation
					JOINT LeftArm
					{
						OFFSET 3.362410 1.200890 -0.311210
						CHANNELS 3 Zrotation Yrotation Xrotation
						JOINT LeftForeArm
						{
							OFFSET 4.983000 -0.000000 -0.000000
							CHANNELS 3 Zrotation Yrotation Xrotation
							JOINT LeftHand
							{
								OFFSET 3.483560 -0.000000 -0.000000
								CHANNELS 3 Zrotation Yrotation Xrotation
								JOINT LeftFingerBase
								{
									OFFSET 0.000000 0.000000 0.000000
									CHANNELS 3 Zrotation Yrotation Xrotation
									JOINT LeftHandIndex1
									{
										OFFSET 0.715260 -0.000000 -0.000000
										CHANNELS 3 Zrotation Yrotation Xrotation
										End Site
										{
											OFFSET 0.000000 0.000000 0.000000
										}
									}
								}
								JOINT LThumb
								{
									OFFSET 0.000000 0.000000 0.000000
									CHANNELS 3 Zrotation Yrotation Xrotation
									End Site
									{
										OFFSET 0.000000 0.000000 0.000000
									}
								}
							}
						}
					}
				}
				JOINT RightShoulder
				{
					OFFSET 0.000000 0.000000 0.000000
					CHANNELS 3 Zrotation Yrotation Xrotation
					JOINT RightArm
					{
						OFFSET -3.136600 1.374050 -0.404650
						CHANNELS 3 Zrotation Yrotation Xrotation
						JOINT RightForeArm
						{
							OFFSET -5.241900 -0.000000 -0.000000
							CHANNELS 3 Zrotation Yrotation Xrotation
							JOINT RightHand
							{
								OFFSET -3.444170 -0.000000 -0.000000
								CHANNELS 3 Zrotation Yrotation Xrotation
								JOINT RightFingerBase
								{
									OFFSET 0.000000 0.000000 0.000000
									CHANNELS 3 Zrotation Yrotation Xrotation
									JOINT RightHandIndex1
									{
										OFFSET -0.622530 -0.000000 -0.000000
										CHANNELS 3 Zrotation Yrotation Xrotation
										End Site
										{
											OFFSET 0.000000 0.000000 0.000000
										}
									}
								}
								JOINT RThumb
								{
									OFFSET 0.000000 0.000000 0.000000
									CHANNELS 3 Zrotation Yrotation Xrotation
									End Site
									{
										OFFSET 0.000000 0.000000 0.000000
									}
								}
							}
						}
					}
				}
			}
		}
	}
}
}
MOTION
Frames: 13
Frame Time: 0.008333
11.322811 18.044822 2.544469 44.151916 -87.919053 0.945852 0.313876 -1.617031 0.300009 -0.199849 -1.646756 -2.993097 -3.202088 -1.682755 -1.525035 3.156434 -3.745827 -1.177032 -1.278163 -0.174387 1.468726 0.000000 0.000000 0.000000 11.589586 -5.969131 0.126750 -52.262331 -40.167692 -1.838188 -0.076474 -80.884218 -0.135875 12.641996 -5.563734 -0.704619 -0.174907 0.711074 -0.000000 0.000000 0.000000 0.000000 0.000000 0.000000 0.000000 0.123734 -0.051157 1.160926 53.653757 50.920875 7.423336 -0.078021 62.981318 -0.130464 -17.322180 11.463369 -1.866208 0.211038 -0.593819 -0.000000 0.000000 0.000000 0.000000 0.000000 0.000000 0.000000 
11.215518 18.162828 2.535723 44.033689 -87.951177 1.486429 0.341767 -1.631789 0.213710 -0.134950 -1.659614 -3.031672 -2.959174 -1.695085 -1.600870 2.793655 -3.820663 -1.081791 -1.094712 -0.164323 1.495057 0.000000 0.000000 0.000000 12.248061 -5.581167 -0.084008 -51.554536 -41.077651 -3.192854 -0.078288 -83.551892 -0.138846 12.441796 -5.392946 -0.676190 -0.165434 0.728759 -0.000000 0.000000 0.000000 0.000000 0.000000 0.000000 0.000000 -1.165283 -0.086288 0.983077 51.914810 51.585354 5.629362 -0.116718 65.738671 -0.138078 -17.451629 11.236641 -1.847830 0.212612 -0.613134 -0.000000 0.000000 0.000000 0.000000 0.000000 0.000000 0.000000 
11.111616 18.267031 2.526593 44.273577 -87.946416 1.784564 0.362553 -1.649919 0.096438 -0.068128 -1.675398 -3.080119 -2.705709 -1.711367 -1.676803 2.401309 -3.901526 -0.996183 -0.901862 -0.153434 1.517407 0.000000 0.000000 0.000000 12.934277 -5.138007 -0.291876 -50.800350 -41.932539 -4.668429 -0.105448 -86.236450 -0.142942 12.385902 -5.218153 -0.655472 -0.159207 0.745219 -0.000000 0.000000 0.000000 0.000000 0.000000 0.000000 0.000000 -2.531862 -0.143164 0.782440 50.124520 52.075272 3.553506 -0.139026 68.551438 -0.146183 -17.635676 10.967208 -1.827962 0.215419 -0.631985 -0.000000 0.000000 0.000000 0.000000 0.000000 0.000000 0.000000 
11.011103 18.358416 2.516957 44.868226 -87.903856 1.822736 0.375694 -1.669788 -0.037600 -0.001231 -1.692372 -3.133924 -2.448357 -1.729687 -1.749157 1.990067 -3.992007 -0.912617 -0.705535 -0.142193 1.537688 0.000000 0.000000 0.000000 13.629369 -4.644787 -0.494868 -49.970663 -42.739032 -6.269400 -0.158840 -88.927767 -0.148451 12.491890 -5.049831 -0.643965 -0.157026 0.760483 -0.000000 0.000000 0.000000 0.000000 0.000000 0.000000 0.000000 -3.937835 -0.230432 0.560723 48.274060 52.398931 1.222967 -0.141525 71.405596 -0.154824 -17.894121 10.664046 -1.809501 0.219953 -0.650023 -0.000000 0.000000 0.000000 0.000000 0.000000 0.000000 0.000000 
10.913641 18.437979 2.506879 45.754567 -87.825991 1.646228 0.383372 -1.689421 -0.175434 0.064522 -1.708683 -3.188767 -2.193376 -1.748057 -1.814365 1.569276 -4.091967 -0.823338 -0.511462 -0.131075 1.557886 0.000000 0.000000 0.000000 14.314110 -4.109607 -0.690703 -49.041500 -43.496650 -8.002171 179.762178 -88.385109 179.844526 12.761246 -4.901223 -0.642769 -0.159386 0.774614 -0.000000 0.000000 0.000000 0.000000 0.000000 0.000000 0.000000 -5.347057 -0.351656 0.321059 46.358967 52.565203 -1.331525 -0.121848 74.284555 -0.164013 -18.241304 10.338602 -1.794850 0.226667 -0.666923 -0.000000 0.000000 0.000000 0.000000 0.000000 0.000000 0.000000 
10.818735 18.506749 2.496339 46.881504 -87.718280 1.287703 0.386935 -1.706493 -0.307359 0.127539 -1.722154 -3.240577 -1.947352 -1.764181 -1.867469 1.149331 -4.204316 -0.722963 -0.325673 -0.120558 1.579436 0.000000 0.000000 0.000000 14.966224 -3.535986 -0.876720 -47.991669 -44.211494 -9.867146 179.660452 -85.722507 179.836094 13.180206 -4.781358 -0.651782 -0.166441 0.787588 0.000000 0.000000 0.000000 0.000000 0.000000 0.000000 0.000000 -6.720473 -0.512736 0.068229 44.374790 52.590341 -4.070465 -0.079210 77.165057 -0.173723 -18.687792 10.002344 -1.786007 0.235988 -0.682340 -0.000000 0.000000 0.000000 0.000000 0.000000 0.000000 0.000000 
10.725695 18.565569 2.485260 48.236147 -87.587976 0.742455 0.384021 -1.717996 -0.427426 0.185249 -1.729773 -3.286105 -1.716594 -1.774925 -1.903672 0.742295 -4.333149 -0.607398 -0.154056 -0.111106 1.603553 0.000000 0.000000 0.000000 15.568634 -2.929264 -1.051262 -46.809943 -44.888494 -11.857498 179.541016 -83.107777 179.826563 13.721396 -4.696396 -0.670202 -0.177975 0.799339 0.000000 0.000000 0.000000 0.000000 0.000000 0.000000 0.000000 -8.017563 -0.719352 -0.191273 42.318560 52.491957 -6.950423 -0.014767 80.022292 -0.183866 -19.237945 9.664539 -1.783871 0.248260 -0.695924 -0.000000 0.000000 0.000000 0.000000 0.000000 0.000000 0.000000 
10.633765 18.615082 2.473752 49.764256 -87.443420 0.049534 0.376714 -1.722085 -0.531506 0.236720 -1.729910 -3.322836 -1.505338 -1.778578 -1.919301 0.355044 -4.479804 -0.475192 -0.000640 -0.103025 1.630747 0.000000 0.000000 0.000000 16.104114 -2.291114 -1.212202 -45.496206 -45.528695 -13.962332 179.411052 -80.567659 179.816401 14.347864 -4.652845 -0.697325 -0.193439 0.809868 0.000000 0.000000 0.000000 0.000000 0.000000 0.000000 0.000000 -9.211763 -0.973268 -0.451642 40.197568 52.287278 -9.924909 0.068129 82.831220 -0.194277 -19.886232 9.331399 -1.788239 0.263615 -0.707368 -0.000000 0.000000 0.000000 0.000000 0.000000 0.000000 0.000000 
10.541787 18.655471 2.461503 51.556733 -87.290886 -0.893096 0.355503 -1.716439 -0.624008 0.278188 -1.719872 -3.350656 -1.317296 -1.772335 -1.911902 -0.001520 -4.645383 -0.325500 0.130743 -0.096608 1.661603 0.000000 0.000000 0.000000 16.567628 -1.632827 -1.359626 -44.065041 -46.127680 -16.158032 179.278610 -78.125445 179.806208 15.015576 -4.643692 -0.730648 -0.212003 0.818974 0.000000 0.000000 0.000000 0.000000 0.000000 0.000000 0.000000 -10.273048 -1.274194 -0.704726 38.021381 51.985671 -12.943973 0.164428 85.569181 -0.204638 -20.616340 9.006589 -1.797307 0.281994 -0.716404 -0.000000 0.000000 0.000000 0.000000 0.000000 0.000000 0.000000 
10.449381 18.687250 2.449240 53.413523 -87.140200 -1.899817 0.336841 -1.701511 -0.692305 0.313657 -1.700976 -3.365756 -1.151680 -1.757419 -1.881046 -0.334098 -4.828791 -0.163560 0.240460 -0.091727 1.694444 0.000000 0.000000 0.000000 16.944504 -0.938745 -1.491356 -42.540330 -46.688955 -18.424482 179.152551 -75.800234 179.796408 15.689041 -4.703401 -0.774063 -0.232804 0.827516 -0.000000 0.000000 0.000000 0.000000 0.000000 0.000000 0.000000 -11.208767 -1.620169 -0.949051 35.812540 51.609469 -15.966307 0.268037 88.217717 -0.214865 -21.415864 8.693093 -1.810172 0.303208 -0.722941 -0.000000 0.000000 0.000000 0.000000 0.000000 0.000000 0.000000 
10.355079 18.709606 2.435852 55.697375 -86.990564 -3.341948 0.285145 -1.675019 -0.757985 0.333196 -1.669241 -3.373679 -1.010628 -1.729687 -1.828632 -0.622430 -5.026432 0.010664 0.325876 -0.088616 1.730241 0.000000 0.000000 0.000000 17.258909 -0.247673 -1.611566 -40.966649 -47.186282 -20.714958 179.039236 -73.613134 179.787652 16.323304 -4.788628 -0.819971 -0.254696 0.834697 -0.000000 0.000000 0.000000 0.000000 0.000000 0.000000 0.000000 -11.985798 -2.001268 -1.172934 33.590116 51.142301 -18.938784 -179.627907 89.235920 179.775634 -22.243719 8.392499 -1.823127 0.326680 -0.726956 -0.000000 0.000000 0.000000 0.000000 0.000000 0.000000 0.000000 
10.258736 18.722637 2.422434 58.113810 -86.849231 -4.933202 0.227568 -1.639536 -0.809681 0.344643 -1.628603 -3.371698 -0.889985 -1.693012 -1.756400 -0.883023 -5.233360 0.187338 0.390631 -0.086828 1.765931 0.000000 0.000000 0.000000 17.495706 0.466555 -1.717102 -39.380117 -47.625109 -22.997855 178.945462 -71.570921 179.780058 16.902490 -4.943275 -0.874665 -0.277072 0.841846 -0.000000 0.000000 0.000000 0.000000 0.000000 0.000000 0.000000 -12.637710 -2.410874 -1.378827 31.390486 50.604575 -21.825180 -179.529071 86.801796 179.767008 -23.080808 8.112913 -1.836471 0.351898 -0.728731 -0.000000 0.000000 0.000000 0.000000 0.000000 0.000000 0.000000 
10.159260 18.725230 2.407991 60.982954 -86.711647 -6.998904 0.128422 -1.594223 -0.867162 0.338874 -1.576552 -3.366132 -0.788460 -1.644715 -1.669493 -1.099623 -5.439013 0.363575 0.435209 -0.086332 1.801599 0.000000 0.000000 0.000000 17.691868 1.161990 -1.812113 -37.842971 -47.970724 -25.218417 178.873125 -69.677806 179.773965 17.401271 -5.117602 -0.929842 -0.299069 0.848155 -0.000000 0.000000 0.000000 0.000000 0.000000 0.000000 0.000000 -13.151041 -2.829063 -1.557356 29.247511 49.970476 -24.580232 -179.441513 84.481174 179.759647 -23.882343 7.862873 -1.848998 0.378050 -0.728696 -0.000000 0.000000 0.000000 0.000000 0.000000 0.000000 0.000000 
